<mxfile host="app.diagrams.net" modified="2023-04-18T22:16:27.319Z" agent="Mozilla/5.0 (Windows NT 10.0; Win64; x64) AppleWebKit/537.36 (KHTML, like Gecko) Chrome/111.0.0.0 Safari/537.36" version="21.1.7" etag="X0VNTRO7kZ4uYAK8nTgS" type="github">
  <diagram name="PÃ¡gina-1" id="szjbtwEokH5T6K7qggf9">
    <mxGraphModel>
      <root>
        <mxCell id="0" />
        <mxCell id="1" parent="0" />
      </root>
    </mxGraphModel>
  </diagram>
</mxfile>
